<mxfile host="app.diagrams.net" modified="2024-04-06T03:28:28.665Z" agent="Mozilla/5.0 (Macintosh; Intel Mac OS X 10_15_7) AppleWebKit/537.36 (KHTML, like Gecko) Chrome/123.0.0.0 Safari/537.36" etag="xwrlDs8MdIYvTCRbHdfL" version="24.2.2" type="device">
  <diagram id="He9vBWbcdAwZbw53MV5B" name="Page-1">
    <mxGraphModel dx="892" dy="553" grid="1" gridSize="10" guides="1" tooltips="1" connect="1" arrows="1" fold="1" page="1" pageScale="1" pageWidth="827" pageHeight="1169" math="0" shadow="0">
      <root>
        <mxCell id="0" />
        <mxCell id="1" parent="0" />
        <mxCell id="VP4OSwgrRRaI7eU7mROd-63" value="" style="rounded=1;whiteSpace=wrap;html=1;" vertex="1" parent="1">
          <mxGeometry x="587.5" y="1165" width="212.5" height="45" as="geometry" />
        </mxCell>
        <mxCell id="VP4OSwgrRRaI7eU7mROd-1" value="计算机原理" style="rounded=0;whiteSpace=wrap;html=1;" vertex="1" parent="1">
          <mxGeometry x="50" y="150" width="120" height="60" as="geometry" />
        </mxCell>
        <mxCell id="VP4OSwgrRRaI7eU7mROd-2" value="进程是CPU资源分配的最小单位&lt;div&gt;线程是CPU调度的最小单位&lt;/div&gt;" style="text;html=1;align=left;verticalAlign=middle;resizable=0;points=[];autosize=1;strokeColor=none;fillColor=none;" vertex="1" parent="1">
          <mxGeometry x="50" y="223" width="190" height="40" as="geometry" />
        </mxCell>
        <mxCell id="VP4OSwgrRRaI7eU7mROd-9" value="" style="edgeStyle=orthogonalEdgeStyle;rounded=0;orthogonalLoop=1;jettySize=auto;html=1;" edge="1" parent="1" source="VP4OSwgrRRaI7eU7mROd-3" target="VP4OSwgrRRaI7eU7mROd-8">
          <mxGeometry relative="1" as="geometry" />
        </mxCell>
        <mxCell id="VP4OSwgrRRaI7eU7mROd-3" value="部门A" style="rounded=0;whiteSpace=wrap;html=1;" vertex="1" parent="1">
          <mxGeometry x="414" y="50" width="100" height="50" as="geometry" />
        </mxCell>
        <mxCell id="VP4OSwgrRRaI7eU7mROd-11" value="" style="edgeStyle=orthogonalEdgeStyle;rounded=0;orthogonalLoop=1;jettySize=auto;html=1;" edge="1" parent="1" source="VP4OSwgrRRaI7eU7mROd-4" target="VP4OSwgrRRaI7eU7mROd-10">
          <mxGeometry relative="1" as="geometry" />
        </mxCell>
        <mxCell id="VP4OSwgrRRaI7eU7mROd-4" value="部门B" style="rounded=0;whiteSpace=wrap;html=1;" vertex="1" parent="1">
          <mxGeometry x="560" y="50" width="100" height="50" as="geometry" />
        </mxCell>
        <mxCell id="VP4OSwgrRRaI7eU7mROd-13" value="" style="edgeStyle=orthogonalEdgeStyle;rounded=0;orthogonalLoop=1;jettySize=auto;html=1;" edge="1" parent="1" source="VP4OSwgrRRaI7eU7mROd-5" target="VP4OSwgrRRaI7eU7mROd-12">
          <mxGeometry relative="1" as="geometry" />
        </mxCell>
        <mxCell id="VP4OSwgrRRaI7eU7mROd-5" value="部门C" style="rounded=0;whiteSpace=wrap;html=1;" vertex="1" parent="1">
          <mxGeometry x="700" y="50" width="100" height="50" as="geometry" />
        </mxCell>
        <mxCell id="VP4OSwgrRRaI7eU7mROd-6" value="" style="endArrow=none;dashed=1;html=1;rounded=0;" edge="1" parent="1">
          <mxGeometry width="50" height="50" relative="1" as="geometry">
            <mxPoint x="540" y="190" as="sourcePoint" />
            <mxPoint x="540" y="50" as="targetPoint" />
          </mxGeometry>
        </mxCell>
        <mxCell id="VP4OSwgrRRaI7eU7mROd-7" value="" style="endArrow=none;dashed=1;html=1;rounded=0;" edge="1" parent="1">
          <mxGeometry width="50" height="50" relative="1" as="geometry">
            <mxPoint x="680" y="190" as="sourcePoint" />
            <mxPoint x="680" y="50" as="targetPoint" />
          </mxGeometry>
        </mxCell>
        <mxCell id="VP4OSwgrRRaI7eU7mROd-8" value="资源" style="rounded=0;whiteSpace=wrap;html=1;" vertex="1" parent="1">
          <mxGeometry x="414" y="150" width="100" height="50" as="geometry" />
        </mxCell>
        <mxCell id="VP4OSwgrRRaI7eU7mROd-10" value="资源" style="rounded=0;whiteSpace=wrap;html=1;" vertex="1" parent="1">
          <mxGeometry x="560" y="150" width="100" height="50" as="geometry" />
        </mxCell>
        <mxCell id="VP4OSwgrRRaI7eU7mROd-12" value="资源" style="rounded=0;whiteSpace=wrap;html=1;" vertex="1" parent="1">
          <mxGeometry x="700" y="150" width="100" height="50" as="geometry" />
        </mxCell>
        <mxCell id="VP4OSwgrRRaI7eU7mROd-14" value="Actor" style="shape=umlActor;verticalLabelPosition=bottom;verticalAlign=top;html=1;outlineConnect=0;" vertex="1" parent="1">
          <mxGeometry x="430" y="210" width="30" height="60" as="geometry" />
        </mxCell>
        <mxCell id="VP4OSwgrRRaI7eU7mROd-15" value="Actor" style="shape=umlActor;verticalLabelPosition=bottom;verticalAlign=top;html=1;outlineConnect=0;" vertex="1" parent="1">
          <mxGeometry x="440" y="220" width="30" height="60" as="geometry" />
        </mxCell>
        <mxCell id="VP4OSwgrRRaI7eU7mROd-16" value="Actor" style="shape=umlActor;verticalLabelPosition=bottom;verticalAlign=top;html=1;outlineConnect=0;" vertex="1" parent="1">
          <mxGeometry x="450" y="230" width="30" height="60" as="geometry" />
        </mxCell>
        <mxCell id="VP4OSwgrRRaI7eU7mROd-17" value="Actor" style="shape=umlActor;verticalLabelPosition=bottom;verticalAlign=top;html=1;outlineConnect=0;" vertex="1" parent="1">
          <mxGeometry x="585" y="210" width="30" height="60" as="geometry" />
        </mxCell>
        <mxCell id="VP4OSwgrRRaI7eU7mROd-18" value="Actor" style="shape=umlActor;verticalLabelPosition=bottom;verticalAlign=top;html=1;outlineConnect=0;" vertex="1" parent="1">
          <mxGeometry x="595" y="220" width="30" height="60" as="geometry" />
        </mxCell>
        <mxCell id="VP4OSwgrRRaI7eU7mROd-19" value="Actor" style="shape=umlActor;verticalLabelPosition=bottom;verticalAlign=top;html=1;outlineConnect=0;" vertex="1" parent="1">
          <mxGeometry x="605" y="230" width="30" height="60" as="geometry" />
        </mxCell>
        <mxCell id="VP4OSwgrRRaI7eU7mROd-20" value="Actor" style="shape=umlActor;verticalLabelPosition=bottom;verticalAlign=top;html=1;outlineConnect=0;" vertex="1" parent="1">
          <mxGeometry x="725" y="210" width="30" height="60" as="geometry" />
        </mxCell>
        <mxCell id="VP4OSwgrRRaI7eU7mROd-21" value="Actor" style="shape=umlActor;verticalLabelPosition=bottom;verticalAlign=top;html=1;outlineConnect=0;" vertex="1" parent="1">
          <mxGeometry x="735" y="220" width="30" height="60" as="geometry" />
        </mxCell>
        <mxCell id="VP4OSwgrRRaI7eU7mROd-22" value="Actor" style="shape=umlActor;verticalLabelPosition=bottom;verticalAlign=top;html=1;outlineConnect=0;" vertex="1" parent="1">
          <mxGeometry x="745" y="230" width="30" height="60" as="geometry" />
        </mxCell>
        <mxCell id="VP4OSwgrRRaI7eU7mROd-23" value="" style="shape=curlyBracket;whiteSpace=wrap;html=1;rounded=1;labelPosition=left;verticalLabelPosition=middle;align=right;verticalAlign=middle;" vertex="1" parent="1">
          <mxGeometry x="240" y="70" width="20" height="210" as="geometry" />
        </mxCell>
        <mxCell id="VP4OSwgrRRaI7eU7mROd-24" value="进程" style="rounded=1;whiteSpace=wrap;html=1;" vertex="1" parent="1">
          <mxGeometry x="270" y="60" width="80" height="40" as="geometry" />
        </mxCell>
        <mxCell id="VP4OSwgrRRaI7eU7mROd-25" value="线程" style="rounded=1;whiteSpace=wrap;html=1;" vertex="1" parent="1">
          <mxGeometry x="270" y="250" width="80" height="40" as="geometry" />
        </mxCell>
        <mxCell id="VP4OSwgrRRaI7eU7mROd-26" value="" style="rounded=0;whiteSpace=wrap;html=1;" vertex="1" parent="1">
          <mxGeometry x="50" y="505" width="120" height="60" as="geometry" />
        </mxCell>
        <mxCell id="VP4OSwgrRRaI7eU7mROd-27" value="" style="rounded=0;whiteSpace=wrap;html=1;" vertex="1" parent="1">
          <mxGeometry x="60" y="515" width="120" height="60" as="geometry" />
        </mxCell>
        <mxCell id="VP4OSwgrRRaI7eU7mROd-28" value="页面" style="rounded=0;whiteSpace=wrap;html=1;" vertex="1" parent="1">
          <mxGeometry x="70" y="525" width="120" height="60" as="geometry" />
        </mxCell>
        <mxCell id="VP4OSwgrRRaI7eU7mROd-29" value="" style="shape=curlyBracket;whiteSpace=wrap;html=1;rounded=1;labelPosition=left;verticalLabelPosition=middle;align=right;verticalAlign=middle;" vertex="1" parent="1">
          <mxGeometry x="210" y="370" width="20" height="340" as="geometry" />
        </mxCell>
        <mxCell id="VP4OSwgrRRaI7eU7mROd-32" value="" style="edgeStyle=orthogonalEdgeStyle;rounded=0;orthogonalLoop=1;jettySize=auto;html=1;" edge="1" parent="1" source="VP4OSwgrRRaI7eU7mROd-30" target="VP4OSwgrRRaI7eU7mROd-31">
          <mxGeometry relative="1" as="geometry" />
        </mxCell>
        <mxCell id="VP4OSwgrRRaI7eU7mROd-30" value="GUI渲染线程" style="rounded=0;whiteSpace=wrap;html=1;" vertex="1" parent="1">
          <mxGeometry x="250" y="370" width="170" height="30" as="geometry" />
        </mxCell>
        <mxCell id="VP4OSwgrRRaI7eU7mROd-31" value="1. 解析HTML、CSS =&amp;gt; 构建DOM树 =&amp;gt; 布局绘制&lt;br&gt;2. 与JS引擎线程互斥的，当执行JS时候，GUI渲染会被挂起，任务队列空闲的时候，才会执行GUI" style="rounded=0;whiteSpace=wrap;html=1;align=left;" vertex="1" parent="1">
          <mxGeometry x="495" y="355" width="305" height="60" as="geometry" />
        </mxCell>
        <mxCell id="VP4OSwgrRRaI7eU7mROd-33" value="JS引擎线程" style="rounded=0;whiteSpace=wrap;html=1;" vertex="1" parent="1">
          <mxGeometry x="250" y="445" width="170" height="30" as="geometry" />
        </mxCell>
        <mxCell id="VP4OSwgrRRaI7eU7mROd-34" value="" style="edgeStyle=orthogonalEdgeStyle;rounded=0;orthogonalLoop=1;jettySize=auto;html=1;" edge="1" parent="1" target="VP4OSwgrRRaI7eU7mROd-35">
          <mxGeometry relative="1" as="geometry">
            <mxPoint x="420" y="460" as="sourcePoint" />
          </mxGeometry>
        </mxCell>
        <mxCell id="VP4OSwgrRRaI7eU7mROd-35" value="1. 处理JS，解析执行脚本&lt;div&gt;2. 处理待执行事件，安排事件队列&lt;/div&gt;&lt;div&gt;3. 阻塞GUI线程&lt;/div&gt;" style="rounded=0;whiteSpace=wrap;html=1;align=left;" vertex="1" parent="1">
          <mxGeometry x="495" y="430" width="305" height="60" as="geometry" />
        </mxCell>
        <mxCell id="VP4OSwgrRRaI7eU7mROd-36" value="定时器线程" style="rounded=0;whiteSpace=wrap;html=1;" vertex="1" parent="1">
          <mxGeometry x="250" y="520" width="170" height="30" as="geometry" />
        </mxCell>
        <mxCell id="VP4OSwgrRRaI7eU7mROd-37" value="" style="edgeStyle=orthogonalEdgeStyle;rounded=0;orthogonalLoop=1;jettySize=auto;html=1;" edge="1" parent="1" target="VP4OSwgrRRaI7eU7mROd-38">
          <mxGeometry relative="1" as="geometry">
            <mxPoint x="420" y="535" as="sourcePoint" />
          </mxGeometry>
        </mxCell>
        <mxCell id="VP4OSwgrRRaI7eU7mROd-38" value="1. 异步定时器的处理和执行&lt;div&gt;2. 接受JS引擎分配的定时器任务，并执行&lt;/div&gt;&lt;div&gt;3. 处理完成之后，交给事件触发线程&lt;/div&gt;" style="rounded=0;whiteSpace=wrap;html=1;align=left;" vertex="1" parent="1">
          <mxGeometry x="495" y="505" width="305" height="60" as="geometry" />
        </mxCell>
        <mxCell id="VP4OSwgrRRaI7eU7mROd-39" value="异步请求线程" style="rounded=0;whiteSpace=wrap;html=1;" vertex="1" parent="1">
          <mxGeometry x="250" y="600" width="170" height="30" as="geometry" />
        </mxCell>
        <mxCell id="VP4OSwgrRRaI7eU7mROd-40" value="" style="edgeStyle=orthogonalEdgeStyle;rounded=0;orthogonalLoop=1;jettySize=auto;html=1;" edge="1" parent="1" target="VP4OSwgrRRaI7eU7mROd-41">
          <mxGeometry relative="1" as="geometry">
            <mxPoint x="420" y="615" as="sourcePoint" />
          </mxGeometry>
        </mxCell>
        <mxCell id="VP4OSwgrRRaI7eU7mROd-41" value="1. 异步执行网络类的操作&lt;div&gt;2. 接收JS引擎分配的异步网络请求任务，并执行&lt;/div&gt;&lt;div&gt;3. 监听处理完之后，交给事件触发线程&lt;/div&gt;" style="rounded=0;whiteSpace=wrap;html=1;align=left;" vertex="1" parent="1">
          <mxGeometry x="495" y="585" width="305" height="60" as="geometry" />
        </mxCell>
        <mxCell id="VP4OSwgrRRaI7eU7mROd-42" value="事件触发线程" style="rounded=0;whiteSpace=wrap;html=1;" vertex="1" parent="1">
          <mxGeometry x="250" y="680" width="170" height="30" as="geometry" />
        </mxCell>
        <mxCell id="VP4OSwgrRRaI7eU7mROd-43" value="" style="edgeStyle=orthogonalEdgeStyle;rounded=0;orthogonalLoop=1;jettySize=auto;html=1;" edge="1" parent="1" target="VP4OSwgrRRaI7eU7mROd-44">
          <mxGeometry relative="1" as="geometry">
            <mxPoint x="420" y="695" as="sourcePoint" />
          </mxGeometry>
        </mxCell>
        <mxCell id="VP4OSwgrRRaI7eU7mROd-44" value="1. 接收所有来源的事件&lt;div&gt;2. 把接收到的回调事件按照顺序加入到任务队列的队尾，做好排序，交给js引擎处理&lt;/div&gt;" style="rounded=0;whiteSpace=wrap;html=1;align=left;" vertex="1" parent="1">
          <mxGeometry x="495" y="665" width="305" height="60" as="geometry" />
        </mxCell>
        <mxCell id="VP4OSwgrRRaI7eU7mROd-45" value="" style="endArrow=classic;html=1;rounded=0;exitX=1;exitY=0.5;exitDx=0;exitDy=0;entryX=1;entryY=0.5;entryDx=0;entryDy=0;" edge="1" parent="1" source="VP4OSwgrRRaI7eU7mROd-44" target="VP4OSwgrRRaI7eU7mROd-35">
          <mxGeometry width="50" height="50" relative="1" as="geometry">
            <mxPoint x="520" y="570" as="sourcePoint" />
            <mxPoint x="570" y="520" as="targetPoint" />
            <Array as="points">
              <mxPoint x="830" y="695" />
              <mxPoint x="830" y="460" />
            </Array>
          </mxGeometry>
        </mxCell>
        <mxCell id="VP4OSwgrRRaI7eU7mROd-46" value="栈：先入后出" style="text;html=1;align=center;verticalAlign=middle;resizable=0;points=[];autosize=1;strokeColor=none;fillColor=none;" vertex="1" parent="1">
          <mxGeometry x="70" y="778" width="100" height="30" as="geometry" />
        </mxCell>
        <mxCell id="VP4OSwgrRRaI7eU7mROd-47" value="" style="rounded=0;whiteSpace=wrap;html=1;" vertex="1" parent="1">
          <mxGeometry x="80" y="810" width="320" height="230" as="geometry" />
        </mxCell>
        <mxCell id="VP4OSwgrRRaI7eU7mROd-48" value="function A() {&lt;br&gt;&lt;span style=&quot;white-space: pre;&quot;&gt;&#x9;&lt;/span&gt;B()&lt;br&gt;&lt;span style=&quot;white-space: pre;&quot;&gt;&#x9;&lt;/span&gt;function B() {&lt;br&gt;&lt;blockquote style=&quot;margin: 0 0 0 40px; border: none; padding: 0px;&quot;&gt;&lt;span style=&quot;white-space-collapse: preserve;&quot;&gt;&#x9;&lt;/span&gt;C()&lt;br&gt;&lt;span style=&quot;white-space: pre;&quot;&gt;&#x9;&lt;/span&gt;function C() {&lt;/blockquote&gt;&lt;blockquote style=&quot;margin: 0 0 0 40px; border: none; padding: 0px;&quot;&gt;&lt;blockquote style=&quot;margin: 0 0 0 40px; border: none; padding: 0px;&quot;&gt;&lt;span style=&quot;white-space-collapse: preserve;&quot;&gt;&#x9;&lt;/span&gt;console.log(&#39;zhaowa&#39;)&lt;span style=&quot;white-space-collapse: preserve;&quot;&gt;&#x9;&lt;br&gt;&lt;/span&gt;&lt;/blockquote&gt;&lt;blockquote style=&quot;margin: 0 0 0 40px; border: none; padding: 0px;&quot;&gt;}&lt;/blockquote&gt;&lt;/blockquote&gt;&lt;span style=&quot;white-space: pre;&quot;&gt;&#x9;&lt;/span&gt;}&lt;br&gt;}&lt;br&gt;&lt;br&gt;A()" style="text;html=1;align=left;verticalAlign=middle;resizable=0;points=[];autosize=1;strokeColor=none;fillColor=none;" vertex="1" parent="1">
          <mxGeometry x="130" y="1170" width="260" height="170" as="geometry" />
        </mxCell>
        <mxCell id="VP4OSwgrRRaI7eU7mROd-49" value="" style="rounded=1;whiteSpace=wrap;html=1;" vertex="1" parent="1">
          <mxGeometry x="440" y="1130" width="120" height="210" as="geometry" />
        </mxCell>
        <mxCell id="VP4OSwgrRRaI7eU7mROd-50" value="stack" style="text;html=1;align=center;verticalAlign=middle;resizable=0;points=[];autosize=1;strokeColor=none;fillColor=none;" vertex="1" parent="1">
          <mxGeometry x="475" y="1130" width="50" height="30" as="geometry" />
        </mxCell>
        <mxCell id="VP4OSwgrRRaI7eU7mROd-51" value="A" style="rounded=1;whiteSpace=wrap;html=1;" vertex="1" parent="1">
          <mxGeometry x="465" y="1295" width="70" height="30" as="geometry" />
        </mxCell>
        <mxCell id="VP4OSwgrRRaI7eU7mROd-52" value="B" style="rounded=1;whiteSpace=wrap;html=1;" vertex="1" parent="1">
          <mxGeometry x="465" y="1259" width="70" height="30" as="geometry" />
        </mxCell>
        <mxCell id="VP4OSwgrRRaI7eU7mROd-53" value="C" style="rounded=1;whiteSpace=wrap;html=1;" vertex="1" parent="1">
          <mxGeometry x="465" y="1220" width="70" height="30" as="geometry" />
        </mxCell>
        <mxCell id="VP4OSwgrRRaI7eU7mROd-54" value="console" style="rounded=1;whiteSpace=wrap;html=1;" vertex="1" parent="1">
          <mxGeometry x="465" y="1185" width="70" height="30" as="geometry" />
        </mxCell>
        <mxCell id="VP4OSwgrRRaI7eU7mROd-55" value="" style="rounded=1;whiteSpace=wrap;html=1;" vertex="1" parent="1">
          <mxGeometry x="250" y="820" width="120" height="210" as="geometry" />
        </mxCell>
        <mxCell id="VP4OSwgrRRaI7eU7mROd-56" value="call&lt;div&gt;stack&lt;/div&gt;" style="text;html=1;align=center;verticalAlign=middle;resizable=0;points=[];autosize=1;strokeColor=none;fillColor=none;" vertex="1" parent="1">
          <mxGeometry x="285" y="820" width="50" height="40" as="geometry" />
        </mxCell>
        <mxCell id="VP4OSwgrRRaI7eU7mROd-57" value="cmd1" style="rounded=1;whiteSpace=wrap;html=1;" vertex="1" parent="1">
          <mxGeometry x="275" y="985" width="70" height="30" as="geometry" />
        </mxCell>
        <mxCell id="VP4OSwgrRRaI7eU7mROd-58" value="cmd2" style="rounded=1;whiteSpace=wrap;html=1;" vertex="1" parent="1">
          <mxGeometry x="275" y="949" width="70" height="30" as="geometry" />
        </mxCell>
        <mxCell id="VP4OSwgrRRaI7eU7mROd-59" value="..." style="rounded=1;whiteSpace=wrap;html=1;" vertex="1" parent="1">
          <mxGeometry x="275" y="910" width="70" height="30" as="geometry" />
        </mxCell>
        <mxCell id="VP4OSwgrRRaI7eU7mROd-61" value="Memory&lt;div&gt;Heap&lt;/div&gt;" style="rounded=1;whiteSpace=wrap;html=1;" vertex="1" parent="1">
          <mxGeometry x="100" y="820" width="120" height="210" as="geometry" />
        </mxCell>
        <mxCell id="VP4OSwgrRRaI7eU7mROd-62" value="queue" style="text;html=1;align=center;verticalAlign=middle;resizable=0;points=[];autosize=1;strokeColor=none;fillColor=none;" vertex="1" parent="1">
          <mxGeometry x="715" y="1172.5" width="60" height="30" as="geometry" />
        </mxCell>
        <mxCell id="VP4OSwgrRRaI7eU7mROd-64" value="c1" style="rounded=0;whiteSpace=wrap;html=1;" vertex="1" parent="1">
          <mxGeometry x="600" y="1172.5" width="30" height="30" as="geometry" />
        </mxCell>
        <mxCell id="VP4OSwgrRRaI7eU7mROd-65" value="c2" style="rounded=0;whiteSpace=wrap;html=1;" vertex="1" parent="1">
          <mxGeometry x="635" y="1172.5" width="30" height="30" as="geometry" />
        </mxCell>
        <mxCell id="VP4OSwgrRRaI7eU7mROd-66" value="" style="rounded=1;whiteSpace=wrap;html=1;" vertex="1" parent="1">
          <mxGeometry x="452.5" y="810" width="212.5" height="45" as="geometry" />
        </mxCell>
        <mxCell id="VP4OSwgrRRaI7eU7mROd-67" value="event queue" style="text;html=1;align=center;verticalAlign=middle;resizable=0;points=[];autosize=1;strokeColor=none;fillColor=none;" vertex="1" parent="1">
          <mxGeometry x="565" y="817.5" width="90" height="30" as="geometry" />
        </mxCell>
        <mxCell id="VP4OSwgrRRaI7eU7mROd-68" value="c1" style="rounded=0;whiteSpace=wrap;html=1;" vertex="1" parent="1">
          <mxGeometry x="465" y="817.5" width="30" height="30" as="geometry" />
        </mxCell>
        <mxCell id="VP4OSwgrRRaI7eU7mROd-69" value="c2" style="rounded=0;whiteSpace=wrap;html=1;" vertex="1" parent="1">
          <mxGeometry x="500" y="817.5" width="30" height="30" as="geometry" />
        </mxCell>
        <mxCell id="VP4OSwgrRRaI7eU7mROd-71" value="" style="curved=1;endArrow=classic;html=1;rounded=0;" edge="1" parent="1">
          <mxGeometry width="50" height="50" relative="1" as="geometry">
            <mxPoint x="390" y="808" as="sourcePoint" />
            <mxPoint x="480" y="790" as="targetPoint" />
            <Array as="points">
              <mxPoint x="370" y="758" />
              <mxPoint x="390" y="758" />
            </Array>
          </mxGeometry>
        </mxCell>
        <mxCell id="VP4OSwgrRRaI7eU7mROd-72" value="" style="curved=1;endArrow=classic;html=1;rounded=0;" edge="1" parent="1">
          <mxGeometry width="50" height="50" relative="1" as="geometry">
            <mxPoint x="535" y="875" as="sourcePoint" />
            <mxPoint x="425" y="925" as="targetPoint" />
            <Array as="points">
              <mxPoint x="535" y="905" />
              <mxPoint x="530" y="925" />
              <mxPoint x="515" y="955" />
              <mxPoint x="465" y="985" />
            </Array>
          </mxGeometry>
        </mxCell>
        <mxCell id="VP4OSwgrRRaI7eU7mROd-73" value="jobs - microtask：promise&amp;nbsp; defineProperty&amp;nbsp; Proxy&lt;div&gt;task - macrotask：&lt;span style=&quot;background-color: initial;&quot;&gt;script setTimeout&amp;nbsp; setInterval&lt;/span&gt;&lt;/div&gt;" style="text;html=1;align=left;verticalAlign=middle;resizable=0;points=[];autosize=1;strokeColor=none;fillColor=none;" vertex="1" parent="1">
          <mxGeometry x="665" y="960" width="280" height="40" as="geometry" />
        </mxCell>
        <mxCell id="VP4OSwgrRRaI7eU7mROd-74" value="任务" style="rounded=1;whiteSpace=wrap;html=1;" vertex="1" parent="1">
          <mxGeometry x="545" y="960" width="100" height="40" as="geometry" />
        </mxCell>
        <mxCell id="VP4OSwgrRRaI7eU7mROd-77" value="" style="edgeStyle=orthogonalEdgeStyle;rounded=0;orthogonalLoop=1;jettySize=auto;html=1;" edge="1" parent="1" source="VP4OSwgrRRaI7eU7mROd-75" target="VP4OSwgrRRaI7eU7mROd-76">
          <mxGeometry relative="1" as="geometry" />
        </mxCell>
        <mxCell id="VP4OSwgrRRaI7eU7mROd-75" value="宏任务" style="rounded=0;whiteSpace=wrap;html=1;" vertex="1" parent="1">
          <mxGeometry x="565" y="1010" width="70" height="30" as="geometry" />
        </mxCell>
        <mxCell id="VP4OSwgrRRaI7eU7mROd-80" value="" style="edgeStyle=orthogonalEdgeStyle;rounded=0;orthogonalLoop=1;jettySize=auto;html=1;" edge="1" parent="1" source="VP4OSwgrRRaI7eU7mROd-76" target="VP4OSwgrRRaI7eU7mROd-79">
          <mxGeometry relative="1" as="geometry" />
        </mxCell>
        <mxCell id="VP4OSwgrRRaI7eU7mROd-76" value="是否有可执行微任务" style="rhombus;whiteSpace=wrap;html=1;rounded=0;" vertex="1" parent="1">
          <mxGeometry x="560" y="1060" width="80" height="45" as="geometry" />
        </mxCell>
        <mxCell id="VP4OSwgrRRaI7eU7mROd-79" value="微任务" style="rounded=0;whiteSpace=wrap;html=1;" vertex="1" parent="1">
          <mxGeometry x="565" y="1120" width="70" height="30" as="geometry" />
        </mxCell>
        <mxCell id="VP4OSwgrRRaI7eU7mROd-81" value="" style="endArrow=classic;html=1;rounded=0;exitX=1;exitY=0.5;exitDx=0;exitDy=0;entryX=1;entryY=0.5;entryDx=0;entryDy=0;" edge="1" parent="1" source="VP4OSwgrRRaI7eU7mROd-76" target="VP4OSwgrRRaI7eU7mROd-75">
          <mxGeometry width="50" height="50" relative="1" as="geometry">
            <mxPoint x="550" y="1120" as="sourcePoint" />
            <mxPoint x="600" y="1070" as="targetPoint" />
            <Array as="points">
              <mxPoint x="660" y="1083" />
              <mxPoint x="660" y="1025" />
            </Array>
          </mxGeometry>
        </mxCell>
        <mxCell id="VP4OSwgrRRaI7eU7mROd-83" value="" style="endArrow=classic;html=1;rounded=0;exitX=0;exitY=0.5;exitDx=0;exitDy=0;entryX=0;entryY=0.5;entryDx=0;entryDy=0;" edge="1" parent="1" source="VP4OSwgrRRaI7eU7mROd-79" target="VP4OSwgrRRaI7eU7mROd-75">
          <mxGeometry width="50" height="50" relative="1" as="geometry">
            <mxPoint x="550" y="1120" as="sourcePoint" />
            <mxPoint x="600" y="1070" as="targetPoint" />
            <Array as="points">
              <mxPoint x="550" y="1135" />
              <mxPoint x="550" y="1025" />
            </Array>
          </mxGeometry>
        </mxCell>
        <mxCell id="VP4OSwgrRRaI7eU7mROd-84" value="Text" style="text;html=1;align=center;verticalAlign=middle;resizable=0;points=[];autosize=1;strokeColor=none;fillColor=none;" vertex="1" parent="1">
          <mxGeometry x="735" y="1028" width="50" height="30" as="geometry" />
        </mxCell>
      </root>
    </mxGraphModel>
  </diagram>
</mxfile>
